<svg version="1.1" id="Layer_1" xmlns="http://www.w3.org/2000/svg" xmlns:xlink="http://www.w3.org/1999/xlink" x="0px" y="0px"
	 width="100%" viewBox="0 0 496 496" enable-background="new 0 0 496 496" xml:space="preserve">
<path fill="#FFFFFF" opacity="1.000000" stroke="none" 
	d="
M270.531342,0.999999 
	C278.468506,2.541964 285.994843,3.848996 293.394867,5.669270 
	C317.051697,11.488407 338.915497,20.986982 356.131104,38.831501 
	C370.614288,53.843727 377.722443,71.573997 377.058411,93.011520 
	C376.524323,110.254349 372.369934,125.728874 362.860626,139.918671 
	C361.798309,141.503876 361.274628,143.174622 361.336548,145.081207 
	C361.891510,162.171158 360.732697,179.018753 353.779266,194.760880 
	C355.839386,197.148834 358.434021,197.549805 360.626923,198.631516 
	C396.125732,216.141953 416.584930,244.750259 423.136658,283.516205 
	C424.018799,288.735870 424.201263,294.118713 424.234131,299.428925 
	C424.356873,319.255066 424.341370,339.082672 424.258728,358.909241 
	C424.212646,369.962677 417.211121,376.988342 407.011780,376.505951 
	C399.705719,376.160370 393.715210,370.856842 392.683350,363.572571 
	C392.264709,360.617249 392.180054,357.600037 392.138000,354.608246 
	C391.833588,332.953735 392.664368,311.289642 391.682312,289.641602 
	C390.417450,261.760010 364.794891,230.775421 337.697052,224.067642 
	C335.407043,223.500778 333.953705,223.997955 332.372894,225.524826 
	C317.643555,239.751724 300.020630,248.449524 279.804871,250.894958 
	C263.612427,252.853714 247.254807,252.319489 230.925400,251.538345 
	C210.554901,250.563858 192.772079,243.275345 176.774170,231.022980 
	C175.980972,230.415466 175.024445,229.903778 174.472733,229.116943 
	C169.994843,222.731018 164.606430,223.623245 158.454407,226.511307 
	C129.941620,239.896729 113.248764,261.890167 111.364716,293.512207 
	C110.187531,313.270172 111.080544,333.151093 111.025497,352.976746 
	C111.017639,355.806732 111.102676,358.658081 110.799393,361.462219 
	C109.757355,371.097046 103.365555,376.908905 94.296616,376.660156 
	C85.923233,376.430481 78.883415,369.816437 78.900391,360.701660 
	C78.945038,336.730713 77.471321,312.714050 79.629234,288.792419 
	C82.970383,251.753998 101.146805,223.685852 132.456039,203.989365 
	C136.665695,201.341064 141.252472,199.251755 145.792480,197.184357 
	C148.469345,195.965378 149.196579,194.516403 148.124176,191.730103 
	C143.151749,178.810776 141.120132,165.353546 141.776794,151.579315 
	C142.076141,145.300171 140.108200,140.200867 137.151047,134.736969 
	C122.463280,107.598480 120.440964,79.870255 136.310074,52.526890 
	C147.205460,33.753529 164.739441,22.495218 184.188278,14.040422 
	C200.800079,6.818944 218.266495,2.929442 236.632660,1.146827 
	C248.020889,1.000000 259.041779,1.000000 270.531342,0.999999 
M225.197845,34.848850 
	C218.936554,35.804768 212.804657,37.326637 206.832428,39.403778 
	C190.397125,45.119980 175.301193,52.935692 164.705109,67.405518 
	C162.408844,70.541245 159.949173,73.763916 159.978638,78.238678 
	C221.194824,78.238678 282.156555,78.238678 343.896576,78.238678 
	C341.198120,70.159798 336.653625,64.177139 331.001495,58.971046 
	C321.671478,50.377361 310.726776,44.459072 298.822876,40.333794 
	C275.076111,32.104416 250.765793,30.564901 225.197845,34.848850 
M194.020996,173.052872 
	C187.724701,171.961823 181.522064,170.443283 175.349457,168.237442 
	C175.005005,170.804123 175.513474,172.530777 176.003479,174.292404 
	C183.307983,200.553726 208.390579,219.615555 235.724655,219.637604 
	C246.220825,219.646088 256.721436,219.837128 267.212250,219.600571 
	C290.508484,219.075241 308.252106,208.499954 320.676758,189.016891 
	C324.645325,182.793808 327.476532,175.961349 328.153931,168.014725 
	C320.723297,170.614014 313.709503,173.173935 306.380798,173.207153 
	C269.230194,173.375580 232.078186,173.234039 194.020996,173.052872 
M264.499908,141.638107 
	C275.492188,141.637711 286.484589,141.669601 297.476715,141.627319 
	C307.401947,141.589142 316.636047,138.929337 324.659760,133.121048 
	C332.077728,127.751282 338.496063,121.356155 341.498291,112.220093 
	C335.993927,110.398026 165.401001,110.764542 161.733292,112.530197 
	C162.215988,113.737183 162.571777,115.032791 163.212402,116.167610 
	C172.295013,132.257309 186.159882,141.040237 204.544556,141.529556 
	C224.183395,142.052261 243.847046,141.641937 264.499908,141.638107 
z"/>
<path fill="#FFFFFF" opacity="1.000000" stroke="none" 
	d="
M99.468636,497.000000 
	C94.085045,491.471100 94.358459,484.747284 94.780861,478.063385 
	C99.478386,403.732605 150.789780,346.078003 221.448441,332.161499 
	C293.667358,317.937653 366.836792,355.443237 396.221558,425.611023 
	C404.017365,444.226593 407.793365,463.713623 408.335602,483.864777 
	C408.461456,488.541412 407.377045,492.758850 404.219727,496.722534 
	C396.312408,497.000000 388.624847,497.000000 380.379150,496.639526 
	C375.228973,489.812653 376.531708,482.122559 375.907074,475.005249 
	C373.856110,451.634949 365.487457,430.835815 352.021606,411.885742 
	C351.008026,410.459351 350.212463,408.622589 347.896027,408.456970 
	C347.423859,408.798798 346.831238,409.118317 346.374725,409.574127 
	C329.408813,426.515320 312.490875,443.504822 295.458282,460.378632 
	C293.186493,462.629242 293.762115,464.425781 294.753174,466.993958 
	C298.579376,476.909332 301.564178,486.951080 295.000000,497.000000 
	C287.312408,497.000000 279.624847,497.000000 271.298828,496.687408 
	C268.135406,492.923920 267.105865,489.005096 266.729584,484.788116 
	C265.994171,476.546387 259.676971,470.930420 251.417435,470.969971 
	C243.364578,471.008545 237.117569,476.495575 236.354599,484.542755 
	C235.921600,489.109619 234.809631,493.320923 232.000000,497.000000 
	C224.312424,497.000000 216.624832,497.000000 208.344360,496.663940 
	C205.691223,493.033386 204.104675,489.564819 204.247711,485.573608 
	C204.518890,478.007080 205.821518,470.638000 209.676498,464.022339 
	C211.159119,461.477905 210.725143,459.976166 208.759262,458.026978 
	C192.196960,441.605560 175.699066,425.118866 159.253738,408.580261 
	C156.971619,406.285217 155.372314,406.073822 153.282944,408.817139 
	C138.400467,428.357758 129.517120,450.185547 127.191040,474.741302 
	C126.481293,482.233978 127.510643,490.177551 123.000000,497.000000 
	C115.312424,497.000000 107.624847,497.000000 99.468636,497.000000 
M317.422943,380.114319 
	C269.287872,348.910370 207.731094,360.429291 180.926041,384.444641 
	C181.080292,384.738342 181.173767,385.092590 181.397476,385.317047 
	C199.153580,403.131042 216.927567,420.927216 234.672226,438.752563 
	C236.246414,440.333862 237.822144,440.692291 240.057220,440.157990 
	C248.125900,438.229095 256.261566,438.034241 264.218018,440.667755 
	C267.547668,441.769836 269.726471,440.901306 272.114838,438.488739 
	C288.519958,421.917358 305.063385,405.482910 321.536346,388.978516 
	C322.561493,387.951447 323.946259,387.122650 324.138214,385.334991 
	C322.816803,382.896362 320.134674,382.046539 317.422943,380.114319 
z"/>
</svg>